<svg version="1.1" id="Layer_1" xmlns="http://www.w3.org/2000/svg" xmlns:xlink="http://www.w3.org/1999/xlink" x="0px" y="0px"
	 width="100%" viewBox="0 0 500 500" enable-background="new 0 0 500 500" xml:space="preserve">
<path fill="#0B0019" opacity="1.000000" stroke="none" 
	d="
M276.000000,501.000000 
	C184.000015,501.000000 92.500046,501.000000 1.000049,501.000000 
	C1.000033,334.333405 1.000033,167.666794 1.000016,1.000139 
	C167.666565,1.000092 334.333130,1.000092 500.999756,1.000046 
	C500.999847,167.666519 500.999847,334.333038 500.999939,500.999786 
	C426.166656,501.000000 351.333344,501.000000 276.000000,501.000000 
M95.939972,222.338455 
	C92.050827,240.830505 92.032288,259.450928 95.378731,277.927338 
	C101.707138,312.867798 117.297745,343.121246 144.026520,366.790649 
	C192.646805,409.845734 248.626678,421.101196 308.701660,397.518280 
	C368.404175,374.081573 401.812012,327.884644 408.054565,263.792633 
	C412.632446,216.791245 397.640808,175.272675 364.710480,141.793869 
	C323.735931,100.136826 273.556061,84.829048 215.981613,97.238945 
	C179.708481,105.057457 150.201752,124.231354 127.110779,153.306274 
	C111.094353,173.473297 100.866440,196.246719 95.939972,222.338455 
z"/>
<path fill="#F6F1EF" opacity="1.000000" stroke="none" 
	d="
M95.965607,221.909912 
	C100.866440,196.246719 111.094353,173.473297 127.110779,153.306274 
	C150.201752,124.231354 179.708481,105.057457 215.981613,97.238945 
	C273.556061,84.829048 323.735931,100.136826 364.710480,141.793869 
	C397.640808,175.272675 412.632446,216.791245 408.054565,263.792633 
	C401.812012,327.884644 368.404175,374.081573 308.701660,397.518280 
	C248.626678,421.101196 192.646805,409.845734 144.026520,366.790649 
	C117.297745,343.121246 101.707138,312.867798 95.378731,277.927338 
	C92.032288,259.450928 92.050827,240.830505 95.965607,221.909912 
M110.684929,262.907043 
	C111.093529,262.949738 111.502121,262.992432 112.030525,263.865204 
	C112.319695,265.840851 112.603477,267.817261 112.898811,269.791992 
	C119.780960,315.809662 143.445892,350.842102 184.012207,373.102234 
	C226.794632,396.578400 270.864563,396.017822 314.801392,375.103180 
	C315.879028,374.590149 317.171936,374.529358 318.434784,375.001892 
	C294.997864,388.963959 269.734222,396.005585 242.365768,395.175385 
	C204.360611,394.022461 172.329514,379.643097 146.296143,351.919678 
	C145.156464,350.705994 144.155823,349.241364 142.778763,348.409760 
	C141.710968,347.764923 140.156021,347.926758 138.817627,347.730011 
	C138.760345,349.216736 138.466248,350.748047 138.734756,352.173401 
	C138.895279,353.025421 139.915298,353.731232 140.585846,354.469269 
	C171.662415,388.673615 210.691452,403.506989 256.358215,400.967957 
	C279.262634,399.694458 300.664185,392.547241 320.520660,380.888214 
	C375.404053,348.662415 405.730347,287.005310 397.248688,223.914886 
	C392.970154,192.089432 379.759003,164.307983 356.896240,141.613159 
	C323.173798,108.138481 282.137115,94.475281 235.500931,101.701683 
	C186.772568,109.252266 149.536530,135.536774 124.952629,178.396576 
	C101.482727,219.314255 97.709892,262.604553 112.620338,307.372955 
	C113.518028,310.068268 113.453926,316.036652 118.537407,313.875305 
	C122.876114,312.030609 118.964699,308.047394 118.082138,305.298096 
	C113.645790,291.478363 110.445969,277.462616 110.684929,262.907043 
z"/>
<path fill="#FECB01" opacity="1.000000" stroke="none" 
	d="
M318.364471,374.257690 
	C317.171936,374.529358 315.879028,374.590149 314.801392,375.103180 
	C270.864563,396.017822 226.794632,396.578400 184.012207,373.102234 
	C143.445892,350.842102 119.780960,315.809662 112.898811,269.791992 
	C112.603477,267.817261 112.319695,265.840851 112.031532,262.982483 
	C112.011887,253.413284 111.991241,244.726822 111.989952,235.594269 
	C111.990578,233.658249 111.724434,232.122513 111.990616,230.685349 
	C115.417809,212.180878 121.890953,194.833221 131.534409,178.631119 
	C143.696182,158.197937 160.560562,142.463715 180.470490,129.254120 
	C182.600723,128.723557 184.473160,128.512222 186.038971,127.705635 
	C215.544266,112.506500 246.647446,107.840469 279.087128,114.653191 
	C312.572021,121.685425 340.243195,138.772705 361.200317,165.913452 
	C380.091431,190.378601 389.976624,218.275406 390.003265,249.307541 
	C390.011536,258.908752 388.781128,268.511047 388.126129,278.526733 
	C385.096161,288.081818 382.777435,297.542450 378.887177,306.305420 
	C366.316223,334.622040 347.021545,357.262268 319.782654,373.063019 
	C318.968933,373.407928 318.520721,373.811279 318.153259,374.172638 
	C318.234039,374.130676 318.364471,374.257690 318.364471,374.257690 
M273.836914,229.527603 
	C274.199402,229.422226 274.561890,229.316849 274.870667,229.954437 
	C277.085144,237.518021 281.420593,241.609222 287.674316,242.036697 
	C298.963135,242.808334 310.012634,234.831757 312.752411,223.932938 
	C315.678406,212.293381 308.618744,201.048218 298.240662,201.412949 
	C288.815643,201.744186 281.320251,205.881073 276.701630,214.449646 
	C276.036896,215.682892 275.442413,216.954010 274.529541,218.779160 
	C273.303528,205.891876 272.144958,204.794998 261.209137,205.897598 
	C261.209137,207.637909 261.342255,209.436188 261.187622,211.209381 
	C260.150116,223.107498 259.630920,235.091751 257.773376,246.863403 
	C256.486206,255.020660 252.109451,256.217285 245.039368,251.181259 
	C244.711731,251.580261 244.384109,251.979279 244.023346,253.134277 
	C246.757858,258.580566 251.091690,262.018311 257.230438,262.017975 
	C263.413208,262.017670 267.000092,257.518799 268.545471,252.375748 
	C270.751953,245.032623 271.770782,237.332611 273.836914,229.527603 
M211.754471,237.332428 
	C213.415878,245.145065 217.255554,249.519760 223.017838,250.165207 
	C229.157394,250.852905 232.809494,248.349808 236.612686,240.759262 
	C237.197540,239.592041 237.564407,238.315613 238.687668,236.768539 
	C239.121735,236.855713 239.555801,236.942886 239.847412,237.852600 
	C240.443878,247.717377 245.641724,250.533691 253.528763,245.717743 
	C253.162354,242.077469 252.444473,238.627182 252.555191,235.203705 
	C252.732498,229.721802 253.641617,224.266647 253.912201,218.783951 
	C254.352448,209.863815 250.558289,206.941116 241.602829,209.007767 
	C241.476181,210.720078 241.349533,212.432388 241.153137,215.087601 
	C236.249344,208.974060 230.365768,208.417480 224.957138,211.330429 
	C220.787567,213.576050 217.630325,217.730591 214.104492,221.121140 
	C213.246307,221.946411 212.708466,223.104767 211.700211,224.584015 
	C211.700211,217.140518 211.820358,210.730301 211.649963,204.327835 
	C211.563614,201.082764 209.560104,199.459885 206.293335,198.857483 
	C199.132202,197.536972 199.239792,197.445190 196.962067,204.280319 
	C193.387161,215.008148 189.138367,225.405899 181.167801,234.799118 
	C180.598206,232.473648 180.326019,230.875549 179.814011,229.358383 
	C177.852722,223.546890 176.298782,217.531311 173.682632,212.024261 
	C170.387970,205.088882 164.992676,202.908676 157.987457,204.005432 
	C157.559509,213.767715 157.241241,223.364288 156.678421,232.946487 
	C156.366394,238.258606 155.120361,243.566025 155.314240,248.838104 
	C155.423309,251.803864 156.853882,256.053528 159.047485,257.264923 
	C161.650894,258.702606 165.714645,257.495819 167.864929,257.457764 
	C168.461105,245.244904 168.986008,234.492020 169.510910,223.739120 
	C169.937195,223.724701 170.363464,223.710297 170.789749,223.695877 
	C172.024384,227.971497 173.165329,232.277145 174.522888,236.513382 
	C175.636612,239.988770 176.617188,243.802734 181.113693,244.401794 
	C185.716736,245.015030 188.669632,242.325302 190.925537,238.802765 
	C193.125137,235.368164 195.083755,231.779221 197.148178,228.258041 
	C197.549026,228.320892 197.949860,228.383728 198.350693,228.446579 
	C197.975647,233.106766 197.043900,237.811417 197.411530,242.412262 
	C197.678696,245.755783 198.784058,250.180359 201.136200,251.879013 
	C203.385574,253.503479 207.728134,252.229492 210.912704,252.229492 
	C210.566879,245.961960 210.293610,241.009277 210.678223,235.824585 
	C211.065338,236.083939 211.452454,236.343292 211.754471,237.332428 
M260.460785,278.986267 
	C260.400787,279.312103 260.340759,279.637970 260.159821,280.741333 
	C260.099091,281.998322 260.038330,283.255310 259.968475,284.701050 
	C253.342407,279.632843 249.815918,278.449341 243.882126,281.480438 
	C239.928558,283.500031 236.850372,287.258484 233.446152,290.311951 
	C232.506546,291.154724 231.802521,292.260132 230.990417,293.245026 
	C230.607193,293.041412 230.223969,292.837769 229.840744,292.634155 
	C230.127853,290.387543 230.332458,288.126770 230.715714,285.896729 
	C232.904724,273.159943 229.675125,268.687500 218.208115,268.684113 
	C217.900528,268.684021 217.592896,268.893860 217.180298,269.044006 
	C213.343079,281.628510 208.887161,293.988617 200.229324,304.435455 
	C197.488358,296.737152 195.426407,289.402191 192.290802,282.559174 
	C188.936493,275.238861 183.550903,273.075806 176.007446,274.329529 
	C176.007446,281.016907 176.293564,287.631500 175.933975,294.210846 
	C175.498627,302.176056 174.146912,310.102509 173.955261,318.064117 
	C173.879227,321.222809 174.950562,325.911591 177.124710,327.236176 
	C179.756622,328.839630 184.110641,327.616425 186.479248,327.616425 
	C187.008682,315.899841 187.482193,305.421265 187.955688,294.942688 
	C188.461853,294.943237 188.968002,294.943787 189.474167,294.944336 
	C190.937180,299.682892 192.158051,304.513702 193.920837,309.138000 
	C196.464539,315.810913 202.279099,316.920288 207.192566,311.717926 
	C209.107208,309.690704 210.575348,307.205505 212.047119,304.806396 
	C213.552429,302.352600 214.812927,299.748627 216.180588,297.210388 
	C216.928360,300.063446 216.731598,302.629120 216.521393,305.193695 
	C216.303986,307.845978 215.940979,310.493774 215.872482,313.149506 
	C215.624146,322.780304 220.929901,325.860596 229.632935,321.327759 
	C229.323776,318.330383 228.904465,315.388153 228.748444,312.432068 
	C228.596924,309.560883 228.715546,306.675446 228.715546,303.796234 
	C230.386047,307.092590 230.996231,310.567261 232.535339,313.565033 
	C237.202164,322.654724 247.918961,323.091034 253.348297,314.505096 
	C254.834610,312.154633 255.782120,309.463501 257.800812,306.694000 
	C258.086395,306.693115 258.371948,306.692261 258.455322,307.467468 
	C259.554077,318.189697 263.824249,320.742096 271.199188,316.606293 
	C271.691345,307.455872 271.930542,299.111908 272.640656,290.808228 
	C273.495270,280.814972 271.102722,278.217102 260.460785,278.986267 
M273.206696,306.113617 
	C272.631622,311.370789 274.434692,314.006226 280.112244,314.884033 
	C289.331177,316.309357 298.057343,315.340393 304.824158,307.895752 
	C309.126923,312.881073 312.767303,313.359039 318.194763,310.132385 
	C318.194763,304.440491 318.194763,299.030640 318.194763,293.716522 
	C321.551910,298.681763 324.280762,303.930695 328.147919,308.131897 
	C333.037537,313.443878 341.695404,311.296082 345.063080,304.356079 
	C337.308655,302.359131 331.313354,298.120850 327.637665,290.921997 
	C332.222504,287.287598 339.143219,285.917053 338.917206,279.025208 
	C338.775360,274.700043 335.065369,272.058624 330.670837,270.552277 
	C327.888306,276.976715 324.980499,282.948120 319.357880,286.595093 
	C319.357880,279.851929 319.669312,273.357178 319.283966,266.904022 
	C318.723328,257.514984 316.406219,255.916077 306.943787,256.972900 
	C306.943787,263.634918 307.200317,270.250305 306.871399,276.836456 
	C306.544586,283.380829 305.629089,289.895813 305.022766,295.916748 
	C299.498260,293.610718 294.181641,291.764954 289.281494,289.141266 
	C287.591614,288.236481 286.939087,285.394165 285.812683,283.436920 
	C287.848419,282.381012 290.224365,280.098053 291.842865,280.546875 
	C294.500458,281.283783 296.666595,283.792938 299.702332,286.046509 
	C302.009430,285.706482 304.362701,284.112610 304.235077,280.430084 
	C304.105560,276.694427 301.223328,274.816711 298.186920,275.075592 
	C292.323425,275.575562 286.391113,276.513214 280.770691,278.208710 
	C276.585968,279.471130 273.980255,283.090729 274.126282,287.810852 
	C274.264984,292.293701 277.081818,295.143677 280.881012,296.955414 
	C283.569641,298.237518 286.713196,298.704681 289.169250,300.287354 
	C290.852600,301.372070 292.237305,303.626923 292.687256,305.602112 
	C292.892792,306.504395 290.441681,309.071289 289.336761,308.988861 
	C287.138702,308.824860 284.832367,307.635925 282.980103,306.302002 
	C281.972229,305.576172 281.804169,303.684113 280.867279,301.343628 
	C278.272217,302.809418 275.941956,304.125641 273.206696,306.113617 
M315.487091,228.284943 
	C316.518219,238.421921 320.815338,240.826279 328.827698,236.702286 
	C328.827698,229.659805 328.317322,223.024857 329.043823,216.528198 
	C329.405121,213.297134 331.449768,209.601593 333.927673,207.582169 
	C334.914825,206.777679 339.129333,209.933319 342.572235,211.629913 
	C345.001465,210.020737 348.184662,207.141144 347.222992,202.756363 
	C346.725159,200.486496 344.272949,197.816284 342.057373,196.913986 
	C336.362122,194.594543 332.827057,198.547638 330.530365,201.830505 
	C325.864929,200.578430 321.835815,199.497116 318.043365,198.479324 
	C317.120331,208.957657 316.306091,218.201065 315.487091,228.284943 
M269.108154,187.057159 
	C267.650024,187.182556 265.604736,186.748917 264.848785,187.542862 
	C262.925446,189.562820 260.879211,191.970215 260.284241,194.546356 
	C259.967194,195.919098 262.327820,199.122849 263.891479,199.434402 
	C266.262909,199.906906 269.607330,199.343369 271.445953,197.863098 
	C275.610443,194.510239 274.727997,190.262650 269.108154,187.057159 
z"/>
<path fill="#190E26" opacity="1.000000" stroke="none" 
	d="
M180.069931,129.296234 
	C160.560562,142.463715 143.696182,158.197937 131.534409,178.631119 
	C121.890953,194.833221 115.417809,212.180878 111.990616,230.685349 
	C111.724434,232.122513 111.990578,233.658249 111.638351,235.802795 
	C110.867653,245.269180 110.467926,254.080963 110.068192,262.892731 
	C110.445969,277.462616 113.645790,291.478363 118.082138,305.298096 
	C118.964699,308.047394 122.876114,312.030609 118.537407,313.875305 
	C113.453926,316.036652 113.518028,310.068268 112.620338,307.372955 
	C97.709892,262.604553 101.482727,219.314255 124.952629,178.396576 
	C149.536530,135.536774 186.772568,109.252266 235.500931,101.701683 
	C282.137115,94.475281 323.173798,108.138481 356.896240,141.613159 
	C379.759003,164.307983 392.970154,192.089432 397.248688,223.914886 
	C405.730347,287.005310 375.404053,348.662415 320.520660,380.888214 
	C300.664185,392.547241 279.262634,399.694458 256.358215,400.967957 
	C210.691452,403.506989 171.662415,388.673615 140.585846,354.469269 
	C139.915298,353.731232 138.895279,353.025421 138.734756,352.173401 
	C138.466248,350.748047 138.760345,349.216736 138.817627,347.730011 
	C140.156021,347.926758 141.710968,347.764923 142.778763,348.409760 
	C144.155823,349.241364 145.156464,350.705994 146.296143,351.919678 
	C172.329514,379.643097 204.360611,394.022461 242.365768,395.175385 
	C269.734222,396.005585 294.997864,388.963959 318.399628,374.629791 
	C318.364471,374.257690 318.234039,374.130676 318.428955,374.479065 
	C319.131989,374.258820 319.640076,373.690155 320.148132,373.121460 
	C347.021545,357.262268 366.316223,334.622040 378.887177,306.305420 
	C382.777435,297.542450 385.096161,288.081818 388.478455,278.362488 
	C392.770905,261.125732 394.346588,244.283508 391.909790,227.274338 
	C385.853363,184.999435 366.248322,150.731247 329.950836,127.540573 
	C293.928619,104.525742 254.843140,99.670944 214.194016,113.036781 
	C202.320908,116.940773 191.417694,123.794525 180.069931,129.296234 
z"/>
<path fill="#F9E8AF" opacity="1.000000" stroke="none" 
	d="
M110.376564,262.899902 
	C110.467926,254.080963 110.867653,245.269180 111.618988,236.248871 
	C111.991241,244.726822 112.011887,253.413284 111.971634,262.567444 
	C111.502121,262.992432 111.093529,262.949738 110.376564,262.899902 
z"/>
<path fill="#100518" opacity="1.000000" stroke="none" 
	d="
M256.976898,306.928711 
	C255.782120,309.463501 254.834610,312.154633 253.348297,314.505096 
	C247.918961,323.091034 237.202164,322.654724 232.535339,313.565033 
	C230.996231,310.567261 230.386047,307.092590 228.715546,303.796234 
	C228.715546,306.675446 228.596924,309.560883 228.748444,312.432068 
	C228.904465,315.388153 229.323776,318.330383 229.632935,321.327759 
	C220.929901,325.860596 215.624146,322.780304 215.872482,313.149506 
	C215.940979,310.493774 216.303986,307.845978 216.521393,305.193695 
	C216.731598,302.629120 216.928360,300.063446 216.180588,297.210388 
	C214.812927,299.748627 213.552429,302.352600 212.047119,304.806396 
	C210.575348,307.205505 209.107208,309.690704 207.192566,311.717926 
	C202.279099,316.920288 196.464539,315.810913 193.920837,309.138000 
	C192.158051,304.513702 190.937180,299.682892 189.474167,294.944336 
	C188.968002,294.943787 188.461853,294.943237 187.955688,294.942688 
	C187.482193,305.421265 187.008682,315.899841 186.479248,327.616425 
	C184.110641,327.616425 179.756622,328.839630 177.124710,327.236176 
	C174.950562,325.911591 173.879227,321.222809 173.955261,318.064117 
	C174.146912,310.102509 175.498627,302.176056 175.933975,294.210846 
	C176.293564,287.631500 176.007446,281.016907 176.007446,274.329529 
	C183.550903,273.075806 188.936493,275.238861 192.290802,282.559174 
	C195.426407,289.402191 197.488358,296.737152 200.229324,304.435455 
	C208.887161,293.988617 213.343079,281.628510 217.180298,269.044006 
	C217.592896,268.893860 217.900528,268.684021 218.208115,268.684113 
	C229.675125,268.687500 232.904724,273.159943 230.715714,285.896729 
	C230.332458,288.126770 230.127853,290.387543 229.840744,292.634155 
	C230.223969,292.837769 230.607193,293.041412 230.990417,293.245026 
	C231.802521,292.260132 232.506546,291.154724 233.446152,290.311951 
	C236.850372,287.258484 239.928558,283.500031 243.882126,281.480438 
	C249.815918,278.449341 253.342407,279.632843 259.968475,284.701050 
	C260.038330,283.255310 260.099091,281.998322 260.379883,280.225403 
	C260.790985,279.507416 260.924225,279.272583 260.999603,279.004944 
	C271.102722,278.217102 273.495270,280.814972 272.640656,290.808228 
	C271.930542,299.111908 271.691345,307.455872 271.199188,316.606293 
	C263.824249,320.742096 259.554077,318.189697 258.619934,306.856476 
	C258.485107,305.956665 258.185638,305.667847 257.886169,305.379059 
	C257.583099,305.895599 257.279999,306.412170 256.976898,306.928711 
M242.229889,303.869965 
	C244.035004,306.213531 245.840118,308.557129 247.645264,310.900696 
	C250.045883,308.937439 253.220276,307.418457 254.663300,304.905334 
	C256.755341,301.261871 257.959290,296.979919 258.874786,292.823364 
	C259.920502,288.075745 257.211395,285.039154 252.530273,286.180420 
	C249.502151,286.918640 245.927048,289.093597 244.474258,291.679443 
	C242.667587,294.895172 242.796661,299.198456 242.229889,303.869965 
M231.607376,295.355377 
	C231.363403,295.198578 231.119415,295.041809 230.875443,294.885010 
	C231.025787,295.133331 231.176132,295.381653 231.607376,295.355377 
M230.438644,297.676331 
	C230.226074,297.960846 230.013504,298.245361 229.800934,298.529907 
	C230.096481,298.347015 230.392029,298.164124 230.438644,297.676331 
z"/>
<path fill="#100418" opacity="1.000000" stroke="none" 
	d="
M238.032089,237.089706 
	C237.564407,238.315613 237.197540,239.592041 236.612686,240.759262 
	C232.809494,248.349808 229.157394,250.852905 223.017838,250.165207 
	C217.255554,249.519760 213.415878,245.145065 211.839249,236.496933 
	C211.924026,233.686462 211.924026,231.711487 211.924026,229.736526 
	C211.289459,229.730560 210.654892,229.724594 210.020325,229.718628 
	C210.020325,231.831299 210.020325,233.943954 210.020325,236.056610 
	C210.293610,241.009277 210.566879,245.961960 210.912704,252.229492 
	C207.728134,252.229492 203.385574,253.503479 201.136200,251.879013 
	C198.784058,250.180359 197.678696,245.755783 197.411530,242.412262 
	C197.043900,237.811417 197.975647,233.106766 198.350693,228.446579 
	C197.949860,228.383728 197.549026,228.320892 197.148178,228.258041 
	C195.083755,231.779221 193.125137,235.368164 190.925537,238.802765 
	C188.669632,242.325302 185.716736,245.015030 181.113693,244.401794 
	C176.617188,243.802734 175.636612,239.988770 174.522888,236.513382 
	C173.165329,232.277145 172.024384,227.971497 170.789749,223.695877 
	C170.363464,223.710297 169.937195,223.724701 169.510910,223.739120 
	C168.986008,234.492020 168.461105,245.244904 167.864929,257.457764 
	C165.714645,257.495819 161.650894,258.702606 159.047485,257.264923 
	C156.853882,256.053528 155.423309,251.803864 155.314240,248.838104 
	C155.120361,243.566025 156.366394,238.258606 156.678421,232.946487 
	C157.241241,223.364288 157.559509,213.767715 157.987457,204.005432 
	C164.992676,202.908676 170.387970,205.088882 173.682632,212.024261 
	C176.298782,217.531311 177.852722,223.546890 179.814011,229.358383 
	C180.326019,230.875549 180.598206,232.473648 181.167801,234.799118 
	C189.138367,225.405899 193.387161,215.008148 196.962067,204.280319 
	C199.239792,197.445190 199.132202,197.536972 206.293335,198.857483 
	C209.560104,199.459885 211.563614,201.082764 211.649963,204.327835 
	C211.820358,210.730301 211.700211,217.140518 211.700211,224.584015 
	C212.708466,223.104767 213.246307,221.946411 214.104492,221.121140 
	C217.630325,217.730591 220.787567,213.576050 224.957138,211.330429 
	C230.365768,208.417480 236.249344,208.974060 241.153137,215.087601 
	C241.349533,212.432388 241.476181,210.720078 241.607819,209.008240 
	C250.558289,206.941116 254.352448,209.863815 253.912201,218.783951 
	C253.641617,224.266647 252.732498,229.721802 252.555191,235.203705 
	C252.444473,238.627182 253.162354,242.077469 253.528763,245.717743 
	C245.641724,250.533691 240.443878,247.717377 239.880341,237.147018 
	C239.505569,236.141861 239.097900,235.842285 238.690216,235.542725 
	C238.470840,236.058380 238.251465,236.574036 238.032089,237.089706 
M240.221558,219.841110 
	C237.774597,215.056992 232.274963,214.298035 227.967331,218.149994 
	C223.262543,222.357101 221.640991,231.520599 224.615753,237.090118 
	C226.993454,241.541779 231.614426,242.228699 233.953979,237.785065 
	C236.760147,232.455231 238.246170,226.430359 240.221558,219.841110 
z"/>
<path fill="#120618" opacity="1.000000" stroke="none" 
	d="
M273.409180,305.777740 
	C275.941956,304.125641 278.272217,302.809418 280.867279,301.343628 
	C281.804169,303.684113 281.972229,305.576172 282.980103,306.302002 
	C284.832367,307.635925 287.138702,308.824860 289.336761,308.988861 
	C290.441681,309.071289 292.892792,306.504395 292.687256,305.602112 
	C292.237305,303.626923 290.852600,301.372070 289.169250,300.287354 
	C286.713196,298.704681 283.569641,298.237518 280.881012,296.955414 
	C277.081818,295.143677 274.264984,292.293701 274.126282,287.810852 
	C273.980255,283.090729 276.585968,279.471130 280.770691,278.208710 
	C286.391113,276.513214 292.323425,275.575562 298.186920,275.075592 
	C301.223328,274.816711 304.105560,276.694427 304.235077,280.430084 
	C304.362701,284.112610 302.009430,285.706482 299.702332,286.046509 
	C296.666595,283.792938 294.500458,281.283783 291.842865,280.546875 
	C290.224365,280.098053 287.848419,282.381012 285.812683,283.436920 
	C286.939087,285.394165 287.591614,288.236481 289.281494,289.141266 
	C294.181641,291.764954 299.498260,293.610718 305.022766,295.916748 
	C305.629089,289.895813 306.544586,283.380829 306.871399,276.836456 
	C307.200317,270.250305 306.943787,263.634918 306.943787,256.972900 
	C316.406219,255.916077 318.723328,257.514984 319.283966,266.904022 
	C319.669312,273.357178 319.357880,279.851929 319.357880,286.595093 
	C324.980499,282.948120 327.888306,276.976715 330.670837,270.552277 
	C335.065369,272.058624 338.775360,274.700043 338.917206,279.025208 
	C339.143219,285.917053 332.222504,287.287598 327.637665,290.921997 
	C331.313354,298.120850 337.308655,302.359131 345.063080,304.356079 
	C341.695404,311.296082 333.037537,313.443878 328.147919,308.131897 
	C324.280762,303.930695 321.551910,298.681763 318.194763,293.716522 
	C318.194763,299.030640 318.194763,304.440491 318.194763,310.132385 
	C312.767303,313.359039 309.126923,312.881073 304.824158,307.895752 
	C298.057343,315.340393 289.331177,316.309357 280.112244,314.884033 
	C274.434692,314.006226 272.631622,311.370789 273.409180,305.777740 
z"/>
<path fill="#F5F0EA" opacity="1.000000" stroke="none" 
	d="
M180.470490,129.254120 
	C191.417694,123.794525 202.320908,116.940773 214.194016,113.036781 
	C254.843140,99.670944 293.928619,104.525742 329.950836,127.540573 
	C366.248322,150.731247 385.853363,184.999435 391.909790,227.274338 
	C394.346588,244.283508 392.770905,261.125732 388.470215,277.948608 
	C388.781128,268.511047 390.011536,258.908752 390.003265,249.307541 
	C389.976624,218.275406 380.091431,190.378601 361.200317,165.913452 
	C340.243195,138.772705 312.572021,121.685425 279.087128,114.653191 
	C246.647446,107.840469 215.544266,112.506500 186.038971,127.705635 
	C184.473160,128.512222 182.600723,128.723557 180.470490,129.254120 
z"/>
<path fill="#110518" opacity="1.000000" stroke="none" 
	d="
M245.377457,251.621338 
	C252.109451,256.217285 256.486206,255.020660 257.773376,246.863403 
	C259.630920,235.091751 260.150116,223.107498 261.187622,211.209381 
	C261.342255,209.436188 261.209137,207.637909 261.209137,205.897598 
	C272.144958,204.794998 273.303528,205.891876 274.529541,218.779160 
	C275.442413,216.954010 276.036896,215.682892 276.701630,214.449646 
	C281.320251,205.881073 288.815643,201.744186 298.240662,201.412949 
	C308.618744,201.048218 315.678406,212.293381 312.752411,223.932938 
	C310.012634,234.831757 298.963135,242.808334 287.674316,242.036697 
	C281.420593,241.609222 277.085144,237.518021 274.918884,229.163025 
	C274.967133,226.650574 274.967133,224.929520 274.967133,223.208481 
	C274.574829,223.191147 274.182526,223.173828 273.790192,223.156494 
	C273.625763,225.365997 273.461304,227.575516 273.296875,229.785019 
	C271.770782,237.332611 270.751953,245.032623 268.545471,252.375748 
	C267.000092,257.518799 263.413208,262.017670 257.230438,262.017975 
	C251.091690,262.018311 246.757858,258.580566 244.383545,252.590424 
	C244.954971,251.904846 245.166214,251.763092 245.377457,251.621338 
M301.268982,215.349106 
	C299.658691,212.888535 298.048401,210.427963 296.438110,207.967377 
	C293.878754,209.740433 290.646942,211.019333 288.903473,213.391907 
	C285.526062,217.987961 284.959686,223.661224 286.426880,229.083374 
	C287.071075,231.464142 289.220123,234.728012 291.164612,235.102020 
	C293.091522,235.472641 296.842194,233.205322 297.642670,231.225601 
	C299.564301,226.472809 300.225098,221.210281 301.268982,215.349106 
z"/>
<path fill="#110518" opacity="1.000000" stroke="none" 
	d="
M315.489441,227.864700 
	C316.306091,218.201065 317.120331,208.957657 318.043365,198.479324 
	C321.835815,199.497116 325.864929,200.578430 330.530365,201.830505 
	C332.827057,198.547638 336.362122,194.594543 342.057373,196.913986 
	C344.272949,197.816284 346.725159,200.486496 347.222992,202.756363 
	C348.184662,207.141144 345.001465,210.020737 342.572235,211.629913 
	C339.129333,209.933319 334.914825,206.777679 333.927673,207.582169 
	C331.449768,209.601593 329.405121,213.297134 329.043823,216.528198 
	C328.317322,223.024857 328.827698,229.659805 328.827698,236.702286 
	C320.815338,240.826279 316.518219,238.421921 315.489441,227.864700 
z"/>
<path fill="#130718" opacity="1.000000" stroke="none" 
	d="
M269.497437,187.150604 
	C274.727997,190.262650 275.610443,194.510239 271.445953,197.863098 
	C269.607330,199.343369 266.262909,199.906906 263.891479,199.434402 
	C262.327820,199.122849 259.967194,195.919098 260.284241,194.546356 
	C260.879211,191.970215 262.925446,189.562820 264.848785,187.542862 
	C265.604736,186.748917 267.650024,187.182556 269.497437,187.150604 
z"/>
<path fill="#130618" opacity="1.000000" stroke="none" 
	d="
M210.349274,235.940598 
	C210.020325,233.943954 210.020325,231.831299 210.020325,229.718628 
	C210.654892,229.724594 211.289459,229.730560 211.924026,229.736526 
	C211.924026,231.711487 211.924026,233.686462 211.881805,236.132050 
	C211.452454,236.343292 211.065338,236.083939 210.349274,235.940598 
z"/>
<path fill="#120618" opacity="1.000000" stroke="none" 
	d="
M273.566895,229.656311 
	C273.461304,227.575516 273.625763,225.365997 273.790192,223.156494 
	C274.182526,223.173828 274.574829,223.191147 274.967133,223.208481 
	C274.967133,224.929520 274.967133,226.650574 274.945740,228.791534 
	C274.561890,229.316849 274.199402,229.422226 273.566895,229.656311 
z"/>
<path fill="#130618" opacity="1.000000" stroke="none" 
	d="
M238.359879,236.929123 
	C238.251465,236.574036 238.470840,236.058380 238.690216,235.542725 
	C239.097900,235.842285 239.505569,236.141861 239.951569,236.735748 
	C239.555801,236.942886 239.121735,236.855713 238.359879,236.929123 
z"/>
<path fill="#120618" opacity="1.000000" stroke="none" 
	d="
M257.388855,306.811340 
	C257.279999,306.412170 257.583099,305.895599 257.886169,305.379059 
	C258.185638,305.667847 258.485107,305.956665 258.721008,306.468445 
	C258.371948,306.692261 258.086395,306.693115 257.388855,306.811340 
z"/>
<path fill="#F6F1EF" opacity="1.000000" stroke="none" 
	d="
M319.782654,373.063019 
	C319.640076,373.690155 319.131989,374.258820 318.348206,374.521057 
	C318.520721,373.811279 318.968933,373.407928 319.782654,373.063019 
z"/>
<path fill="#110518" opacity="1.000000" stroke="none" 
	d="
M244.400116,252.212433 
	C244.384109,251.979279 244.711731,251.580261 245.208405,251.401306 
	C245.166214,251.763092 244.954971,251.904846 244.400116,252.212433 
z"/>
<path fill="#120618" opacity="1.000000" stroke="none" 
	d="
M260.730194,278.995605 
	C260.924225,279.272583 260.790985,279.507416 260.440308,279.836639 
	C260.340759,279.637970 260.400787,279.312103 260.730194,278.995605 
z"/>
<path fill="#F9C701" opacity="1.000000" stroke="none" 
	d="
M242.159821,303.451019 
	C242.796661,299.198456 242.667587,294.895172 244.474258,291.679443 
	C245.927048,289.093597 249.502151,286.918640 252.530273,286.180420 
	C257.211395,285.039154 259.920502,288.075745 258.874786,292.823364 
	C257.959290,296.979919 256.755341,301.261871 254.663300,304.905334 
	C253.220276,307.418457 250.045883,308.937439 247.645264,310.900696 
	C245.840118,308.557129 244.035004,306.213531 242.159821,303.451019 
z"/>
<path fill="#120618" opacity="1.000000" stroke="none" 
	d="
M231.466919,295.492676 
	C231.176132,295.381653 231.025787,295.133331 230.875443,294.885010 
	C231.119415,295.041809 231.363403,295.198578 231.466919,295.492676 
z"/>
<path fill="#120618" opacity="1.000000" stroke="none" 
	d="
M230.563110,297.828796 
	C230.392029,298.164124 230.096481,298.347015 229.800934,298.529907 
	C230.013504,298.245361 230.226074,297.960846 230.563110,297.828796 
z"/>
<path fill="#F8C701" opacity="1.000000" stroke="none" 
	d="
M240.262711,220.273773 
	C238.246170,226.430359 236.760147,232.455231 233.953979,237.785065 
	C231.614426,242.228699 226.993454,241.541779 224.615753,237.090118 
	C221.640991,231.520599 223.262543,222.357101 227.967331,218.149994 
	C232.274963,214.298035 237.774597,215.056992 240.262711,220.273773 
z"/>
<path fill="#F9C701" opacity="1.000000" stroke="none" 
	d="
M301.331848,215.751282 
	C300.225098,221.210281 299.564301,226.472809 297.642670,231.225601 
	C296.842194,233.205322 293.091522,235.472641 291.164612,235.102020 
	C289.220123,234.728012 287.071075,231.464142 286.426880,229.083374 
	C284.959686,223.661224 285.526062,217.987961 288.903473,213.391907 
	C290.646942,211.019333 293.878754,209.740433 296.438110,207.967377 
	C298.048401,210.427963 299.658691,212.888535 301.331848,215.751282 
z"/>
</svg>