<svg version="1.1" id="Layer_1" xmlns="http://www.w3.org/2000/svg" xmlns:xlink="http://www.w3.org/1999/xlink" x="0px" y="0px"
	 width="100%" viewBox="0 0 500 500" enable-background="new 0 0 500 500" xml:space="preserve">
<path fill="#FFFFFF" opacity="1.000000" stroke="none" 
	d="
M464.000000,501.000000 
	C309.333374,501.000000 155.166733,501.000000 1.000083,501.000000 
	C1.000055,334.333405 1.000055,167.666824 1.000028,1.000172 
	C167.666550,1.000115 334.333099,1.000115 500.999756,1.000057 
	C500.999817,167.666519 500.999817,334.333038 500.999908,500.999756 
	C488.833344,501.000000 476.666656,501.000000 464.000000,501.000000 
M426.164307,257.146515 
	C426.164307,257.146515 426.541718,257.447479 426.487762,258.237549 
	C424.980591,264.017120 423.965698,269.985138 421.843140,275.529083 
	C419.115051,282.654419 413.635864,284.695099 406.451263,282.052521 
	C404.164032,281.211273 402.027344,279.960693 399.431732,278.709381 
	C399.296539,283.274323 401.739655,285.849487 404.811584,287.912842 
	C414.087280,294.143188 426.565399,291.788055 430.635834,281.443756 
	C435.276337,269.650696 438.279755,257.090363 440.780090,244.619965 
	C442.555969,235.762756 439.453949,233.342072 429.904358,233.541916 
	C429.568634,235.225357 429.226715,236.939774 428.838898,238.884476 
	C420.908234,229.587509 408.174744,231.150848 398.463806,245.510254 
	C397.407776,234.608734 396.524475,233.665649 387.041443,233.432098 
	C386.598297,235.189056 386.148682,236.971680 385.633148,239.015656 
	C379.605164,232.529083 373.336395,231.421707 366.026154,235.197647 
	C356.285248,240.229080 351.106934,252.969025 354.552216,263.407990 
	C356.190247,268.371155 359.305054,271.835938 364.613037,272.708893 
	C369.834625,273.567657 373.640137,270.984680 376.474121,266.920624 
	C378.743744,263.665955 380.706482,260.197327 383.164307,257.146515 
	C383.164307,257.146515 383.541718,257.447479 383.487762,258.237549 
	C382.383209,262.918243 381.535370,267.678040 380.122894,272.263885 
	C376.742004,283.240631 369.890259,285.922089 359.882538,280.467682 
	C358.850647,279.905304 357.750061,279.468994 356.681335,278.974182 
	C356.898254,281.748657 357.672974,283.959564 359.117218,285.570007 
	C366.287750,293.565948 380.679138,292.821289 386.386597,283.710999 
	C389.408508,278.887421 390.976868,273.129883 393.017639,267.724579 
	C394.068390,264.941528 394.716614,262.006531 395.625885,258.866852 
	C396.331512,259.465302 396.516266,259.543579 396.552460,259.665863 
	C396.737976,260.292328 396.893524,260.928192 397.044525,261.564331 
	C398.417084,267.346344 401.446716,271.704987 407.661316,272.702057 
	C413.561005,273.648682 417.388733,270.271729 420.356842,265.688324 
	C422.241638,262.777863 423.993805,259.781525 426.164307,257.146515 
M152.728500,239.415527 
	C152.728500,239.415527 152.633499,239.860458 152.105148,239.244293 
	C147.012375,233.098755 142.043823,231.178879 135.088379,234.404358 
	C130.922668,236.336151 127.668060,240.232620 123.476501,243.236084 
	C123.300995,243.246933 123.125481,243.257797 122.324905,242.831223 
	C122.947525,238.626099 123.835014,234.440018 124.139023,230.211990 
	C124.825943,220.658401 123.271408,218.975632 113.683586,218.020706 
	C113.202187,217.972778 112.703209,218.101395 112.168503,218.151947 
	C106.760010,230.338898 100.696777,242.070068 90.882599,251.403671 
	C89.104141,243.254059 87.969368,235.665176 85.722168,228.421417 
	C83.427895,221.025925 77.534348,217.786789 70.299416,218.515259 
	C69.942772,223.001648 69.972855,227.524872 69.157715,231.890274 
	C67.268234,242.009338 64.644264,251.997101 62.932465,262.141785 
	C61.327370,271.654083 66.701759,275.380157 74.402641,272.126740 
	C76.300186,261.095490 78.062912,250.847961 79.825638,240.600449 
	C80.361877,240.629440 80.898125,240.658432 81.434364,240.687424 
	C82.171860,245.004547 82.448425,249.473770 83.805405,253.586502 
	C84.743790,256.430573 86.628464,259.739288 89.065948,261.128601 
	C92.661064,263.177734 96.103287,260.665924 98.664803,257.823669 
	C100.772797,255.484665 102.621948,252.909607 104.544662,250.407532 
	C105.573273,249.068985 106.514923,247.663605 107.495811,246.288391 
	C107.496422,251.648544 105.914154,256.406311 105.478912,261.266815 
	C105.190239,264.490479 105.457680,269.095642 107.445221,270.844147 
	C109.772400,272.891418 114.237785,272.508209 117.627655,273.151245 
	C118.089897,266.688385 118.454720,261.587555 118.819542,256.486755 
	C120.292938,259.082489 120.626053,261.727234 121.518845,264.167206 
	C125.119667,274.008118 135.834076,275.815338 142.343369,267.682159 
	C144.088348,265.501862 145.399429,262.974335 147.674606,260.341217 
	C147.866486,260.530914 148.058350,260.720642 148.067627,261.776062 
	C149.002960,265.136383 148.991623,269.415558 151.124771,271.613251 
	C153.530594,274.091858 157.812286,273.647339 159.577988,272.635040 
	C161.328995,262.677155 162.731766,254.243362 164.310425,245.842636 
	C166.105408,236.290695 163.496140,233.288605 153.016449,233.686554 
	C153.016449,235.463303 153.016449,237.263290 152.728500,239.415527 
M318.847137,264.555603 
	C320.638550,262.639465 322.180267,259.489410 324.273651,259.065826 
	C328.542297,258.202087 333.108154,258.807190 337.401642,258.807190 
	C339.743835,274.260284 342.952850,276.502838 352.483795,270.569977 
	C351.886932,265.128448 351.138977,259.886963 350.772552,254.618927 
	C350.138458,245.502380 349.957336,236.350937 349.182220,227.248550 
	C348.434174,218.463516 346.331055,216.892303 338.809204,216.929794 
	C330.037750,228.428314 321.946014,239.109406 313.704254,249.673431 
	C313.157043,250.374817 311.433563,250.476562 310.319611,250.341644 
	C308.732971,250.149506 307.204193,249.479767 304.053101,248.535110 
	C305.549530,252.227982 306.566345,254.737259 307.728760,257.605927 
	C306.868225,259.105347 305.582336,261.049896 304.589722,263.134094 
	C302.153381,268.249847 304.709869,272.122986 310.287994,273.054962 
	C316.901428,274.159943 317.326141,269.493896 318.847137,264.555603 
M246.741302,260.419128 
	C247.735184,255.874161 248.759903,251.335678 249.716614,246.782898 
	C251.843399,236.662064 249.768707,234.043808 239.133896,233.435944 
	C238.742996,235.249771 238.348099,237.082184 237.900803,239.157761 
	C231.528229,232.541595 225.372406,231.440445 217.988647,235.309601 
	C208.328705,240.371460 203.270218,253.289474 206.811493,263.638763 
	C208.452454,268.434448 211.468231,271.678589 216.547684,272.614655 
	C221.572769,273.540680 225.230896,271.168243 228.145706,267.358856 
	C229.764877,265.242706 231.276505,263.044281 233.218124,260.354370 
	C233.898361,272.523315 237.652328,275.413239 246.558640,271.636078 
	C246.558640,268.130280 246.558640,264.691162 246.741302,260.419128 
M166.124405,271.559967 
	C169.665665,271.995728 173.206924,272.431488 177.165436,272.918579 
	C174.302521,258.133881 182.774048,242.174423 192.653259,243.227707 
	C191.326431,249.218430 189.997559,255.132339 188.709427,261.055115 
	C186.941559,269.183685 190.665985,275.876465 201.131577,271.971130 
	C201.404617,267.811462 201.325760,263.826477 201.995407,259.971527 
	C203.129074,253.445084 205.138290,247.055618 206.030258,240.506546 
	C206.923462,233.948349 203.483246,231.300888 197.339340,233.913177 
	C192.841263,235.825684 188.879700,239.002151 184.685074,241.624969 
	C183.323105,242.476578 181.980316,243.358795 180.259232,244.464401 
	C179.724060,235.016693 177.830200,233.315338 169.773560,233.673813 
	C167.961990,241.888550 165.761185,249.906570 164.572983,258.071930 
	C163.965347,262.247650 165.171280,266.687225 166.124405,271.559967 
M249.698486,268.458130 
	C252.435013,273.242432 256.321136,274.189606 262.387299,271.447784 
	C259.965942,260.448334 263.941132,251.613388 272.174103,244.463333 
	C273.365234,243.428909 275.378418,243.341034 277.011200,242.815125 
	C277.129242,244.339447 277.580048,245.926819 277.305420,247.376770 
	C276.317871,252.591110 274.569885,257.708984 274.060242,262.955688 
	C273.184723,271.969055 278.354370,275.258942 287.178741,271.552948 
	C287.178741,268.026886 286.705078,264.317749 287.285431,260.781586 
	C288.251465,254.895218 290.265961,249.172104 291.094330,243.275635 
	C291.512939,240.296127 291.263641,235.306381 289.596741,234.404785 
	C287.168396,233.091324 282.748138,233.769867 279.967987,235.169724 
	C275.052185,237.644943 270.732117,241.303314 266.245758,244.408997 
	C265.662659,235.118683 264.421997,233.898727 255.221344,233.478745 
	C253.822098,240.005646 252.253220,246.449310 251.105133,252.967102 
	C250.249832,257.822815 249.938980,262.774475 249.698486,268.458130 
z"/>
<path fill="#10051E" opacity="1.000000" stroke="none" 
	d="
M124.003944,243.246033 
	C127.668060,240.232620 130.922668,236.336151 135.088379,234.404358 
	C142.043823,231.178879 147.012375,233.098755 152.422333,239.462280 
	C152.904556,239.510544 152.996857,239.304886 153.016449,239.063278 
	C153.016449,237.263290 153.016449,235.463303 153.016449,233.686554 
	C163.496140,233.288605 166.105408,236.290695 164.310425,245.842636 
	C162.731766,254.243362 161.328995,262.677155 159.577988,272.635040 
	C157.812286,273.647339 153.530594,274.091858 151.124771,271.613251 
	C148.991623,269.415558 149.002960,265.136383 148.341400,261.168335 
	C148.389038,260.149323 148.162933,259.738007 147.936813,259.326691 
	C147.594452,259.753204 147.252090,260.179718 146.909698,260.606232 
	C145.399429,262.974335 144.088348,265.501862 142.343369,267.682159 
	C135.834076,275.815338 125.119667,274.008118 121.518845,264.167206 
	C120.626053,261.727234 120.292938,259.082489 118.819542,256.486755 
	C118.454720,261.587555 118.089897,266.688385 117.627655,273.151245 
	C114.237785,272.508209 109.772400,272.891418 107.445221,270.844147 
	C105.457680,269.095642 105.190239,264.490479 105.478912,261.266815 
	C105.914154,256.406311 107.496422,251.648544 107.495811,246.288391 
	C106.514923,247.663605 105.573273,249.068985 104.544662,250.407532 
	C102.621948,252.909607 100.772797,255.484665 98.664803,257.823669 
	C96.103287,260.665924 92.661064,263.177734 89.065948,261.128601 
	C86.628464,259.739288 84.743790,256.430573 83.805405,253.586502 
	C82.448425,249.473770 82.171860,245.004547 81.434364,240.687424 
	C80.898125,240.658432 80.361877,240.629440 79.825638,240.600449 
	C78.062912,250.847961 76.300186,261.095490 74.402641,272.126740 
	C66.701759,275.380157 61.327370,271.654083 62.932465,262.141785 
	C64.644264,251.997101 67.268234,242.009338 69.157715,231.890274 
	C69.972855,227.524872 69.942772,223.001648 70.299416,218.515259 
	C77.534348,217.786789 83.427895,221.025925 85.722168,228.421417 
	C87.969368,235.665176 89.104141,243.254059 90.882599,251.403671 
	C100.696777,242.070068 106.760010,230.338898 112.168503,218.151947 
	C112.703209,218.101395 113.202187,217.972778 113.683586,218.020706 
	C123.271408,218.975632 124.825943,220.658401 124.139023,230.211990 
	C123.835014,234.440018 122.947525,238.626099 122.456589,243.246719 
	C122.191452,244.125214 121.794640,244.588211 121.397820,245.051208 
	C121.650627,245.246674 121.903435,245.442154 122.156242,245.637619 
	C122.772141,244.840424 123.388039,244.043228 124.003944,243.246033 
M136.925659,263.525238 
	C139.043167,262.547546 141.941925,262.128693 143.121323,260.479919 
	C145.879715,256.623810 148.112045,252.301880 149.937546,247.910889 
	C150.696335,246.085739 150.713425,242.647705 149.572403,241.645279 
	C147.891785,240.168823 144.766876,239.446777 142.445602,239.767487 
	C136.984360,240.522003 134.421814,244.907272 133.209213,249.702942 
	C131.991257,254.519791 131.179840,259.640289 136.925659,263.525238 
M121.475014,248.600784 
	C121.181053,248.873901 120.887100,249.147018 120.593132,249.420135 
	C120.698608,249.523788 120.885353,249.726608 120.897636,249.716553 
	C121.193466,249.474106 121.470650,249.208893 121.475014,248.600784 
M120.254211,253.811523 
	C120.372322,253.973724 120.490433,254.135925 120.608551,254.298126 
	C120.584236,254.071976 120.559921,253.845810 120.254211,253.811523 
M108.480118,246.002197 
	C108.556343,245.770218 108.632576,245.538239 108.708809,245.306244 
	C108.474075,245.385422 108.239342,245.464600 108.480118,246.002197 
z"/>
<path fill="#FFCD07" opacity="1.000000" stroke="none" 
	d="
M382.805420,256.823669 
	C380.706482,260.197327 378.743744,263.665955 376.474121,266.920624 
	C373.640137,270.984680 369.834625,273.567657 364.613037,272.708893 
	C359.305054,271.835938 356.190247,268.371155 354.552216,263.407990 
	C351.106934,252.969025 356.285248,240.229080 366.026154,235.197647 
	C373.336395,231.421707 379.605164,232.529083 385.633148,239.015656 
	C386.148682,236.971680 386.598297,235.189056 387.041443,233.432098 
	C396.524475,233.665649 397.407776,234.608734 398.463806,245.510254 
	C408.174744,231.150848 420.908234,229.587509 428.838898,238.884476 
	C429.226715,236.939774 429.568634,235.225357 429.904358,233.541916 
	C439.453949,233.342072 442.555969,235.762756 440.780090,244.619965 
	C438.279755,257.090363 435.276337,269.650696 430.635834,281.443756 
	C426.565399,291.788055 414.087280,294.143188 404.811584,287.912842 
	C401.739655,285.849487 399.296539,283.274323 399.431732,278.709381 
	C402.027344,279.960693 404.164032,281.211273 406.451263,282.052521 
	C413.635864,284.695099 419.115051,282.654419 421.843140,275.529083 
	C423.965698,269.985138 424.980591,264.017120 426.668427,257.593506 
	C426.819122,256.405334 426.789185,255.861221 426.700928,254.257492 
	C426.168427,255.783432 425.986938,256.303558 425.805420,256.823669 
	C423.993805,259.781525 422.241638,262.777863 420.356842,265.688324 
	C417.388733,270.271729 413.561005,273.648682 407.661316,272.702057 
	C401.446716,271.704987 398.417084,267.346344 397.044525,261.564331 
	C396.893524,260.928192 396.737976,260.292328 396.552460,259.665863 
	C396.516266,259.543579 396.331512,259.465302 395.625885,258.866852 
	C394.716614,262.006531 394.068390,264.941528 393.017639,267.724579 
	C390.976868,273.129883 389.408508,278.887421 386.386597,283.710999 
	C380.679138,292.821289 366.287750,293.565948 359.117218,285.570007 
	C357.672974,283.959564 356.898254,281.748657 356.681335,278.974182 
	C357.750061,279.468994 358.850647,279.905304 359.882538,280.467682 
	C369.890259,285.922089 376.742004,283.240631 380.122894,272.263885 
	C381.535370,267.678040 382.383209,262.918243 383.668396,257.593506 
	C383.819122,256.405334 383.789154,255.861221 383.700836,254.257645 
	C383.168396,255.783417 382.986908,256.303558 382.805420,256.823669 
M378.565338,258.026611 
	C380.226471,254.610153 382.177002,251.300186 383.482147,247.752777 
	C385.531067,242.183762 382.300720,238.640366 376.422516,239.645966 
	C370.594116,240.643051 366.096100,246.866013 365.958160,254.176346 
	C365.886963,257.949738 366.151306,261.889252 370.315521,263.314850 
	C374.299774,264.678833 376.120728,261.199554 378.565338,258.026611 
M411.999664,244.643387 
	C411.046204,249.067230 409.573730,253.469955 409.392639,257.925201 
	C409.319305,259.728363 411.741302,262.545135 413.630188,263.223572 
	C415.106903,263.753937 418.249817,262.226074 419.359772,260.682953 
	C422.032593,256.967041 424.329590,252.856232 426.005188,248.600357 
	C426.837982,246.485138 426.902222,242.413651 425.657471,241.510559 
	C423.645142,240.050568 420.180756,239.902023 417.493530,240.301773 
	C415.663239,240.574020 414.112671,242.726410 411.999664,244.643387 
z"/>
<path fill="#FFCD06" opacity="1.000000" stroke="none" 
	d="
M318.662384,264.905640 
	C317.326141,269.493896 316.901428,274.159943 310.287994,273.054962 
	C304.709869,272.122986 302.153381,268.249847 304.589722,263.134094 
	C305.582336,261.049896 306.868225,259.105347 307.728760,257.605927 
	C306.566345,254.737259 305.549530,252.227982 304.053101,248.535110 
	C307.204193,249.479767 308.732971,250.149506 310.319611,250.341644 
	C311.433563,250.476562 313.157043,250.374817 313.704254,249.673431 
	C321.946014,239.109406 330.037750,228.428314 338.809204,216.929794 
	C346.331055,216.892303 348.434174,218.463516 349.182220,227.248550 
	C349.957336,236.350937 350.138458,245.502380 350.772552,254.618927 
	C351.138977,259.886963 351.886932,265.128448 352.483795,270.569977 
	C342.952850,276.502838 339.743835,274.260284 337.401642,258.807190 
	C333.108154,258.807190 328.542297,258.202087 324.273651,259.065826 
	C322.180267,259.489410 320.638550,262.639465 318.662384,264.905640 
M326.665588,252.325333 
	C326.962341,252.983337 327.171753,254.151001 327.569519,254.219162 
	C330.909058,254.791275 334.283173,255.161804 337.915955,255.627502 
	C338.305542,249.335526 338.661438,243.587524 339.107452,236.384094 
	C334.417114,242.363541 330.750885,247.037415 326.665588,252.325333 
z"/>
<path fill="#12071F" opacity="1.000000" stroke="none" 
	d="
M246.649963,260.835571 
	C246.558640,264.691162 246.558640,268.130280 246.558640,271.636078 
	C237.652328,275.413239 233.898361,272.523315 233.218124,260.354370 
	C231.276505,263.044281 229.764877,265.242706 228.145706,267.358856 
	C225.230896,271.168243 221.572769,273.540680 216.547684,272.614655 
	C211.468231,271.678589 208.452454,268.434448 206.811493,263.638763 
	C203.270218,253.289474 208.328705,240.371460 217.988647,235.309601 
	C225.372406,231.440445 231.528229,232.541595 237.900803,239.157761 
	C238.348099,237.082184 238.742996,235.249771 239.133896,233.435944 
	C249.768707,234.043808 251.843399,236.662064 249.716614,246.782898 
	C248.759903,251.335678 247.735184,255.874161 246.649963,260.835571 
M224.628723,240.929916 
	C218.872284,245.320511 217.071472,251.341461 218.398529,258.109741 
	C218.799393,260.154266 220.912964,262.544586 222.842834,263.367493 
	C224.124130,263.913818 227.278030,262.469635 228.195251,261.027222 
	C231.178070,256.336304 233.944931,251.403107 235.961502,246.237793 
	C237.424576,242.490265 235.130203,239.750717 231.020309,239.499420 
	C229.129715,239.383804 227.184769,240.157196 224.628723,240.929916 
z"/>
<path fill="#12071F" opacity="1.000000" stroke="none" 
	d="
M165.840973,271.283752 
	C165.171280,266.687225 163.965347,262.247650 164.572983,258.071930 
	C165.761185,249.906570 167.961990,241.888550 169.773560,233.673813 
	C177.830200,233.315338 179.724060,235.016693 180.259232,244.464401 
	C181.980316,243.358795 183.323105,242.476578 184.685074,241.624969 
	C188.879700,239.002151 192.841263,235.825684 197.339340,233.913177 
	C203.483246,231.300888 206.923462,233.948349 206.030258,240.506546 
	C205.138290,247.055618 203.129074,253.445084 201.995407,259.971527 
	C201.325760,263.826477 201.404617,267.811462 201.131577,271.971130 
	C190.665985,275.876465 186.941559,269.183685 188.709427,261.055115 
	C189.997559,255.132339 191.326431,249.218430 192.653259,243.227707 
	C182.774048,242.174423 174.302521,258.133881 177.165436,272.918579 
	C173.206924,272.431488 169.665665,271.995728 165.840973,271.283752 
z"/>
<path fill="#130820" opacity="1.000000" stroke="none" 
	d="
M249.542068,268.070770 
	C249.938980,262.774475 250.249832,257.822815 251.105133,252.967102 
	C252.253220,246.449310 253.822098,240.005646 255.221344,233.478745 
	C264.421997,233.898727 265.662659,235.118683 266.245758,244.408997 
	C270.732117,241.303314 275.052185,237.644943 279.967987,235.169724 
	C282.748138,233.769867 287.168396,233.091324 289.596741,234.404785 
	C291.263641,235.306381 291.512939,240.296127 291.094330,243.275635 
	C290.265961,249.172104 288.251465,254.895218 287.285431,260.781586 
	C286.705078,264.317749 287.178741,268.026886 287.178741,271.552948 
	C278.354370,275.258942 273.184723,271.969055 274.060242,262.955688 
	C274.569885,257.708984 276.317871,252.591110 277.305420,247.376770 
	C277.580048,245.926819 277.129242,244.339447 277.011200,242.815125 
	C275.378418,243.341034 273.365234,243.428909 272.174103,244.463333 
	C263.941132,251.613388 259.965942,260.448334 262.387299,271.447784 
	C256.321136,274.189606 252.435013,273.242432 249.542068,268.070770 
z"/>
<path fill="#130820" opacity="1.000000" stroke="none" 
	d="
M123.740219,243.241058 
	C123.388039,244.043228 122.772141,244.840424 122.156242,245.637619 
	C121.903435,245.442154 121.650627,245.246674 121.397820,245.051208 
	C121.794640,244.588211 122.191452,244.125214 122.769119,243.465439 
	C123.125481,243.257797 123.300995,243.246933 123.740219,243.241058 
z"/>
<path fill="#130820" opacity="1.000000" stroke="none" 
	d="
M147.292160,260.473724 
	C147.252090,260.179718 147.594452,259.753204 147.936813,259.326691 
	C148.162933,259.738007 148.389038,260.149323 148.432693,260.735535 
	C148.058350,260.720642 147.866486,260.530914 147.292160,260.473724 
z"/>
<path fill="#130820" opacity="1.000000" stroke="none" 
	d="
M152.872467,239.239410 
	C152.996857,239.304886 152.904556,239.510544 152.686523,239.770355 
	C152.633499,239.860458 152.728500,239.415527 152.872467,239.239410 
z"/>
<path fill="#F8F8F9" opacity="1.000000" stroke="none" 
	d="
M136.589188,263.372559 
	C131.179840,259.640289 131.991257,254.519791 133.209213,249.702942 
	C134.421814,244.907272 136.984360,240.522003 142.445602,239.767487 
	C144.766876,239.446777 147.891785,240.168823 149.572403,241.645279 
	C150.713425,242.647705 150.696335,246.085739 149.937546,247.910889 
	C148.112045,252.301880 145.879715,256.623810 143.121323,260.479919 
	C141.941925,262.128693 139.043167,262.547546 136.589188,263.372559 
z"/>
<path fill="#130820" opacity="1.000000" stroke="none" 
	d="
M121.613106,248.774292 
	C121.470650,249.208893 121.193466,249.474106 120.897636,249.716553 
	C120.885353,249.726608 120.698608,249.523788 120.593140,249.420135 
	C120.887100,249.147018 121.181053,248.873901 121.613106,248.774292 
z"/>
<path fill="#130820" opacity="1.000000" stroke="none" 
	d="
M120.394905,253.715591 
	C120.559921,253.845810 120.584236,254.071976 120.608551,254.298126 
	C120.490433,254.135925 120.372322,253.973724 120.394905,253.715591 
z"/>
<path fill="#FFFFFF" opacity="1.000000" stroke="none" 
	d="
M108.242363,245.772980 
	C108.239342,245.464600 108.474075,245.385422 108.708801,245.306244 
	C108.632576,245.538239 108.556343,245.770218 108.242363,245.772980 
z"/>
<path fill="#FFFEF8" opacity="1.000000" stroke="none" 
	d="
M378.352112,258.321014 
	C376.120728,261.199554 374.299774,264.678833 370.315521,263.314850 
	C366.151306,261.889252 365.886963,257.949738 365.958160,254.176346 
	C366.096100,246.866013 370.594116,240.643051 376.422516,239.645966 
	C382.300720,238.640366 385.531067,242.183762 383.482147,247.752777 
	C382.177002,251.300186 380.226471,254.610153 378.352112,258.321014 
z"/>
<path fill="#FFFEF8" opacity="1.000000" stroke="none" 
	d="
M412.218323,244.340759 
	C414.112671,242.726410 415.663239,240.574020 417.493530,240.301773 
	C420.180756,239.902023 423.645142,240.050568 425.657471,241.510559 
	C426.902222,242.413651 426.837982,246.485138 426.005188,248.600357 
	C424.329590,252.856232 422.032593,256.967041 419.359772,260.682953 
	C418.249817,262.226074 415.106903,263.753937 413.630188,263.223572 
	C411.741302,262.545135 409.319305,259.728363 409.392639,257.925201 
	C409.573730,253.469955 411.046204,249.067230 412.218323,244.340759 
z"/>
<path fill="#FFFFFF" opacity="1.000000" stroke="none" 
	d="
M382.984863,256.985107 
	C382.986908,256.303558 383.168396,255.783417 383.700836,254.257645 
	C383.789154,255.861221 383.819122,256.405334 383.695374,257.198486 
	C383.541718,257.447479 383.164307,257.146515 382.984863,256.985107 
z"/>
<path fill="#FFFFFF" opacity="1.000000" stroke="none" 
	d="
M425.984863,256.985107 
	C425.986938,256.303558 426.168427,255.783432 426.700928,254.257492 
	C426.789185,255.861221 426.819122,256.405334 426.695404,257.198486 
	C426.541718,257.447479 426.164307,257.146515 425.984863,256.985107 
z"/>
<path fill="#FFFEF8" opacity="1.000000" stroke="none" 
	d="
M326.875122,252.018311 
	C330.750885,247.037415 334.417114,242.363541 339.107452,236.384094 
	C338.661438,243.587524 338.305542,249.335526 337.915955,255.627502 
	C334.283173,255.161804 330.909058,254.791275 327.569519,254.219162 
	C327.171753,254.151001 326.962341,252.983337 326.875122,252.018311 
z"/>
<path fill="#F8F8F9" opacity="1.000000" stroke="none" 
	d="
M224.946594,240.728699 
	C227.184769,240.157196 229.129715,239.383804 231.020309,239.499420 
	C235.130203,239.750717 237.424576,242.490265 235.961502,246.237793 
	C233.944931,251.403107 231.178070,256.336304 228.195251,261.027222 
	C227.278030,262.469635 224.124130,263.913818 222.842834,263.367493 
	C220.912964,262.544586 218.799393,260.154266 218.398529,258.109741 
	C217.071472,251.341461 218.872284,245.320511 224.946594,240.728699 
z"/>
</svg>